<svg xmlns="http://www.w3.org/2000/svg">
  <defs>
    
    <symbol id="link" viewBox="0 0 100 100">
      <title>Link icon</title>
      <path d="M-408.167-318.5"/>
        <line fill="none" stroke="#000000" stroke-width="0.25" stroke-miterlimit="10" x1="57.5" y1="11.75" x2="57.5" y2="17.5"/>
      <path d="M98.57,4.784c-0.024-0.113-0.047-0.223-0.074-0.334c-0.035-0.117-0.075-0.231-0.117-0.346  c-0.023-0.062-0.037-0.125-0.064-0.187c-0.016-0.032-0.03-0.06-0.049-0.092c-0.048-0.119-0.107-0.227-0.17-0.336  c-0.05-0.089-0.095-0.179-0.152-0.265c-0.062-0.1-0.139-0.195-0.209-0.292C97.67,2.85,97.611,2.77,97.545,2.69  c-0.081-0.092-0.172-0.178-0.258-0.262c-0.07-0.068-0.139-0.139-0.212-0.202c-0.093-0.083-0.196-0.158-0.3-0.232  c-0.08-0.058-0.152-0.114-0.236-0.163c-0.104-0.069-0.219-0.128-0.329-0.186c-0.091-0.046-0.175-0.093-0.262-0.132  c-0.044-0.019-0.081-0.043-0.121-0.061c-0.074-0.03-0.154-0.046-0.234-0.072c-0.095-0.033-0.19-0.065-0.288-0.092  c-0.123-0.034-0.246-0.059-0.369-0.083c-0.096-0.019-0.188-0.036-0.289-0.046c-0.131-0.018-0.263-0.022-0.393-0.028  c-0.064-0.002-0.12-0.012-0.186-0.012L63.77,1.305c-2.535,0.017-4.566,2.078-4.554,4.605c0.019,2.525,2.084,4.563,4.604,4.546  l19.258-0.121l-29.79,30.162c-1.112,1.126-1.526,2.678-1.233,4.118c0.174,0.863,0.596,1.691,1.272,2.357  c0.897,0.888,2.073,1.325,3.245,1.32c1.17-0.007,2.337-0.459,3.227-1.361l0.002-0.001l29.787-30.158l0.121,19.255  c0.014,2.523,2.07,4.564,4.602,4.545c1.268-0.005,2.408-0.526,3.233-1.357c0.817-0.834,1.325-1.98,1.317-3.242L98.675,5.665  c0-0.063-0.016-0.124-0.016-0.189c-0.009-0.123-0.015-0.25-0.032-0.375C98.616,4.992,98.592,4.89,98.57,4.784z"/>
      <path d="M6.542,83.279c0,5.717,4.635,10.354,10.354,10.354l55.616,0.065c5.719,0,10.354-4.636,10.354-10.354l-0.091-40.782h6.135  v40.849c0,9.014-7.307,16.319-16.319,16.319l-56.36-0.066c-8.597,0-15.564-6.969-15.564-15.562L0.585,27.821  c0-9.014,7.306-16.32,16.32-16.32l41.138-0.084v6.142L16.98,17.535c-5.718,0-10.354,4.635-10.354,10.354L6.542,83.279z"/>  
      </symbol>
      
      <symbol id="book" viewBox="0 0 512 512">
        <title>Book icon</title>
        <path stroke-width="0.5" d="M463.672,59.219l-385.68,0.125c-11.328,0-20.547-9.203-20.562-20.531c0-11.344,9.227-20.578,20.562-20.578  h385.695c5.031,0,9.094-4.078,9.094-9.109S468.719,0,463.688,0H77.992C56.609,0,39.219,17.406,39.219,38.797v434.531  C39.273,494.641,56.664,512,77.992,512h385.68c5.031,0,9.109-4.094,9.109-9.125V68.344  C472.781,63.312,468.703,59.219,463.672,59.219z M265.125,77.562h100.453v153.281L322.5,209.328  c-4.875-2.266-9.688-2.156-14.062-0.109l-43.312,21.625V77.562z M454.562,493.781H77.992c-11.328,0-20.547-9.219-20.562-20.531  V72.641l7.648,2.703c4.141,1.469,8.484,2.219,12.914,2.219h168.914v156.031c-0.008,11.5,12.719,19.938,23.531,14.969l44.906-22.469  l44.719,22.359c11.656,5.484,23.719-3.359,23.719-14.859V77.562h70.781V493.781z"/>
      </symbol>
      
      <symbol id="browser" viewBox="0 0 512 512">
        <title>Link icon</title>
        <path d="M488.062,29.656H23.938C10.734,29.656,0,40.406,0,53.594v404.812c0,13.188,10.734,23.938,23.938,23.938h464.125   c13.203,0,23.938-10.75,23.938-23.938V53.594C512,40.406,501.266,29.656,488.062,29.656z M493.781,464.125H18.211V136.859h475.57   V464.125z M493.781,118.656H18.211V47.875h475.57V118.656z"/><path d="M73.664,97.812C81.57,97.812,88,91.375,88,83.469s-6.43-14.375-14.336-14.375S59.32,75.562,59.32,83.469   S65.758,97.812,73.664,97.812z"/><path d="M143.461,97.812c7.906,0,14.336-6.438,14.336-14.344s-6.43-14.375-14.336-14.375s-14.336,6.469-14.336,14.375   S135.555,97.812,143.461,97.812z"/><path d="M213.25,97.812c7.906,0,14.336-6.438,14.336-14.344s-6.43-14.375-14.336-14.375s-14.336,6.469-14.336,14.375   S205.344,97.812,213.25,97.812z"/>
      </symbol>
      
      <symbol id="web" viewBox="0 0 512 512">
        <title>Link icon</title>
        <path d="M255.992,0C114.836,0,0.008,114.844,0.008,256s114.828,256,255.984,256s256-114.844,256-256  S397.148,0,255.992,0z M80.414,95.656c2.422-2.656,4.891-5.219,7.438-7.781c21.797-21.812,47.234-38.969,75.594-50.969  c9.359-3.984,19.203-7.406,29.25-10.188l25.234-6.984l-20.016,16.891c-27.484,23.188-50.141,50.906-67.281,82.406l-2.297,4.25  l-4.578-1.562c-14.453-4.938-28.453-10.656-41.609-17.062l-6.906-3.328L80.414,95.656z M18.688,240.828  c1.68-26.766,7.797-52.781,18.203-77.375c6.453-15.266,14.562-29.938,24.094-43.547l2.852-4.078l4.438,2.266  c14.719,7.484,30.312,14.125,46.312,19.734l5.75,1.984l-2.359,5.625c-12.766,30.484-20.047,62.812-21.719,96.031l-0.266,5.438  H18.305L18.688,240.828z M68.273,393.906l-4.438,2.266l-2.852-4.078c-9.531-13.594-17.641-28.266-24.094-43.562  c-10.406-24.578-16.523-50.594-18.203-77.344l-0.383-6.078h77.688l0.266,5.422c1.672,33.234,8.953,65.547,21.719,96.047l2.359,5.609  l-5.75,2C98.586,379.781,82.992,386.438,68.273,393.906z M192.695,485.281c-10.047-2.781-19.891-6.203-29.266-10.188  c-28.297-11.969-53.719-29.109-75.562-50.969c-2.562-2.547-5.031-5.125-7.453-7.781l-5.172-5.656l6.906-3.344  c13.375-6.5,27.375-12.25,41.625-17.047l4.562-1.547l2.297,4.234c17.109,31.422,39.766,59.172,67.297,82.406l19.953,16.859  L192.695,485.281z M246.898,488.094l-8.812-5.641c-16.281-10.422-31.5-22.688-45.281-36.469  c-16.812-16.797-31.297-35.672-43.031-56.078l-3.766-6.531l7.328-1.875c28.141-7.125,57.625-11.266,87.625-12.312l5.938-0.203  V488.094z M246.898,350.781l-5.547,0.172c-33.766,1.078-66.953,5.984-98.672,14.547l-4.812,1.281l-2.656-6.188  c-12.031-28.469-19-58.562-20.688-89.438l-0.328-6.047h132.703V350.781z M246.898,246.906H114.195l0.328-6.047  c1.688-30.891,8.656-60.984,20.688-89.453l1.938-4.594l5.531-0.297c31.719,8.562,64.906,13.453,98.672,14.547l5.547,0.156V246.906z   M246.898,143.016l-5.938-0.203c-30.062-1.031-59.547-5.188-87.625-12.344l-7.328-1.859l3.766-6.547  c11.734-20.375,26.219-39.234,43.031-56.062c13.812-13.797,29.031-26.062,45.281-36.438l8.812-5.656V143.016z M443.727,118.094  l4.422-2.266l2.859,4.078c9.531,13.609,17.641,28.281,24.094,43.562c10.406,24.578,16.516,50.594,18.203,77.359l0.375,6.078h-77.672  l-0.266-5.438c-1.672-33.219-8.969-65.547-21.719-96.031l-2.359-5.625l5.734-1.984C413.414,132.219,429.008,125.578,443.727,118.094  z M319.305,26.719c10.062,2.781,19.906,6.219,29.25,10.188c28.344,12,53.781,29.156,75.578,50.969  c2.547,2.562,5.016,5.125,7.453,7.781l5.172,5.672l-6.906,3.328c-13.172,6.406-27.172,12.125-41.609,17.062l-4.578,1.562  l-2.297-4.25c-17.156-31.5-39.797-59.219-67.281-82.406l-20.031-16.906L319.305,26.719z M265.086,23.906l8.812,5.656  c16.281,10.391,31.5,22.656,45.281,36.406c16.844,16.875,31.312,35.75,43.031,56.094l3.766,6.547l-7.328,1.859  c-28.078,7.156-57.562,11.312-87.625,12.344l-5.938,0.203V23.906z M265.086,161.219l5.562-0.156  c33.75-1.094,66.953-5.984,98.656-14.547l4.812-1.297l2.656,6.188c12.031,28.469,19,58.562,20.688,89.453l0.344,6.047H265.086  V161.219z M265.086,265.109h132.719l-0.344,6.047c-1.688,30.875-8.656,60.969-20.688,89.438l-1.938,4.609l-5.531,0.297  c-31.703-8.562-64.906-13.469-98.656-14.547l-5.562-0.172V265.109z M265.086,488.094V368.984l5.938,0.203  c30,1.047,59.484,5.188,87.625,12.312l7.312,1.875l-3.75,6.531c-11.719,20.391-26.188,39.25-43.031,56.078  c-13.75,13.766-28.969,26.047-45.281,36.469L265.086,488.094z M431.586,416.344c-2.438,2.656-4.906,5.234-7.438,7.781  c-21.875,21.859-47.312,39-75.594,50.969c-9.375,3.984-19.219,7.406-29.25,10.188l-25.188,6.969l19.953-16.859  c27.531-23.234,50.172-50.984,67.297-82.406l2.297-4.234l4.562,1.547c14.234,4.797,28.234,10.547,41.625,17.047l6.906,3.344  L431.586,416.344z M493.305,271.188c-1.688,26.75-7.797,52.766-18.203,77.375c-6.453,15.266-14.562,29.938-24.094,43.531  l-2.859,4.078l-4.422-2.266c-14.719-7.469-30.312-14.125-46.328-19.719l-5.734-2l2.359-5.609  c12.75-30.5,20.047-62.812,21.719-96.047l0.266-5.422h77.672L493.305,271.188z"/>
      </symbol>
      
      <symbol id="music" viewBox="0 0 512 512">
        <title>Music icon</title>
        <path d="M493.618,386.624l0.094-386.625L166.681,78.124V396.53l-9.062-6.438  c-14.344-10.188-32.812-15.812-52.031-15.812c-4,0-8.062,0.266-12.156,0.75c-22.344,2.672-42.438,12.406-56.579,27.406  c-13.875,14.688-20.312,32.688-18.156,50.704c4.422,36.875,44.907,63.484,91.125,58.188c42.359-5.094,74.672-35.422,75.109-70.578  l0.016-244.376l290.484-69.375v213.312l-9.062-6.469c-17.312-12.312-40.297-17.938-64.188-15.062  c-22.344,2.688-42.438,12.406-56.578,27.391c-13.875,14.703-20.328,32.719-18.156,50.719c4.422,36.892,44.953,63.642,91.109,58.204  C459.618,450.156,491.899,420.719,493.618,386.624z M153.087,471.406c-11.031,11.688-27.594,19.641-45.453,21.781  c-3.328,0.406-6.672,0.609-9.984,0.609c-16.031,0-31.156-4.688-42.594-13.25c-7.344-5.516-16.469-15.125-18.219-29.578  c-1.516-12.531,3.219-25.312,13.313-36c11.031-11.704,27.609-19.657,45.469-21.798c19.312-2.328,38.781,2.328,52.562,12.656  c7.344,5.501,16.484,15.079,18.219,29.563C167.915,447.922,163.181,460.703,153.087,471.406z M184.946,177.608V92.53l290.484-69.375  v85.062L184.946,177.608z M406.399,437.531c-16.031,0-31.156-4.688-42.594-13.25c-7.359-5.5-16.484-15.109-18.219-29.563  c-1.5-12.547,3.219-25.328,13.312-36c11.031-11.719,27.609-19.656,45.453-21.812c19.594-2.359,38.812,2.344,52.578,12.656  c7.344,5.516,16.484,15.125,18.219,29.578c1.516,12.531-3.219,25.312-13.312,36.001c-11.047,11.703-27.625,19.656-45.469,21.797  C413.056,437.344,409.681,437.531,406.399,437.531z"/>
      </symbol>
      
      <symbol id="podcast" viewBox="0 0 512 512">
        <title>Podcast icon</title>
        <path d="M255.992,338.781c53.719,0,97.438-43.719,97.438-97.438V97.438C353.43,43.719,309.711,0,255.992,0   S158.57,43.719,158.57,97.438v143.906C158.57,295.062,202.273,338.781,255.992,338.781z M176.602,97.438   c0-21.188,8.266-41.125,23.234-56.141c15-15,34.938-23.25,56.156-23.25c21.234,0,41.172,8.25,56.156,23.25   c15,15.016,23.25,34.953,23.25,56.141v143.906c0,21.188-8.25,41.125-23.234,56.141c-15.016,15-34.953,23.25-56.172,23.25   c-21.203,0-41.141-8.25-56.125-23.234c-15-15.031-23.266-34.969-23.266-56.156V97.438z"/><path d="M373.898,493.984H265.023v-87.703l5.078-5.703c81.109-7.234,142.281-74.172,142.281-155.734c0-4.969-4.047-9-9.016-9   s-9.031,4.031-9.031,9c0,36.984-14.391,71.75-40.516,97.859c-26.125,26.125-60.859,40.5-97.828,40.5   c-36.953,0-71.688-14.375-97.812-40.516c-24.781-24.766-39-57.297-40.406-92.125l-0.203-6.438   c0.094-6.156-3.969-10.203-8.938-10.203s-9.016,4.047-9.016,9.016l0.078,6.594c2.297,79.406,62.656,143.938,142.203,151.047   l5.078,5.703v87.703H138.102c-4.969,0-9,4.047-9,9.016s4.031,9,9,9h235.797c4.969,0,9-4.031,9-9S378.867,493.984,373.898,493.984z"/>
      </symbol>
      
      <symbol id="doc" viewBox="0 0 512 512">
        <title>Document icon</title>
        <path d="M443.07,118.594c-0.078-2.312-1.172-4.688-3.031-6.328L330.289,2.562C328.586,0.922,326.336,0,323.977,0H92.867   C79.664,0,68.914,10.75,68.914,23.969v464.094c0,13.203,10.75,23.938,23.953,23.938h326.266c13.203,0,23.953-10.734,23.953-23.938   L443.07,118.594z M420.664,118.656h-96.219l-0.031-96.234L420.664,118.656z M424.852,493.781H87.148V18.25h219.062v94.688   c0,13.188,10.734,23.938,23.938,23.938h94.703V493.781z"/><path d="M152.195,245.031h96.391c5.031,0,9.109-4.078,9.109-9.094s-4.078-9.109-9.109-9.109h-96.391   c-5.031,0-9.125,4.094-9.125,9.109S147.164,245.031,152.195,245.031z"/><path d="M143.07,310.094c0,5.031,4.094,9.125,9.125,9.125h207.609c5.031,0,9.125-4.094,9.125-9.125s-4.094-9.109-9.125-9.109   H152.195C147.164,300.984,143.07,305.062,143.07,310.094z"/><path d="M359.805,375.125H152.195c-5.031,0-9.125,4.094-9.125,9.109c0,5.031,4.094,9.125,9.125,9.125h207.609   c5.031,0,9.125-4.094,9.125-9.125C368.93,379.219,364.836,375.125,359.805,375.125z"/>
      </symbol>
      
      <symbol id="arrow" viewBox="0 0 100 100">
        <title>Arrow Icon</title>
        <path d="M50,69.167c-0.861,0-1.723-0.268-2.452-0.804L6.687,38.307c-1.842-1.355-2.236-3.946-0.882-5.787   c1.356-1.844,3.949-2.232,5.787-0.882L50,59.889l38.409-28.251c1.842-1.353,4.433-0.96,5.787,0.882   c1.354,1.841,0.959,4.432-0.882,5.787L52.452,68.362C51.723,68.898,50.861,69.167,50,69.167z"/>
      </symbol>
      
      <symbol id="email" viewBox="0 0 512 512">
        <path d="M512,107.625c0-13.219-10.734-23.969-23.922-23.969H23.953C10.75,83.656,0,94.406,0,107.625v296.75  c0,13.219,10.75,23.969,23.953,23.969h464.125c13.188,0,23.922-10.75,23.922-23.969V107.625z M480.703,101.906L256,288.672  L31.312,101.906H480.703z M18.234,397.297V114.719L188.203,256L18.234,397.297z M31.312,410.094l171.141-142.25l47.781,39.703  c3.25,2.703,8.297,2.703,11.531,0l47.797-39.703l171.141,142.25H31.312z M493.797,397.297L323.812,256l169.984-141.281V397.297z"/>
      </symbol>
      
      <symbol id="phone" viewBox="0 0 512 512">
        <g><path d="M421.34,170.664v-42.672c0-5.891-4.781-10.664-10.688-10.664V42.664C410.652,19.102,391.559,0,367.996,0H133.332   C109.762,0,90.66,19.102,90.66,42.664v426.664c0,23.578,19.102,42.672,42.672,42.672h234.664c23.562,0,42.656-19.094,42.656-42.672   V255.992c5.906,0,10.688-4.773,10.688-10.664v-42.664c0-5.891-4.781-10.672-10.688-10.672v-10.664   C416.559,181.328,421.34,176.555,421.34,170.664z M133.332,21.328h234.664c11.766,0,21.344,9.57,21.344,21.336v21.328H111.996   V42.664C111.996,30.898,121.566,21.328,133.332,21.328z M389.34,85.328v341.328H111.996V85.328H389.34z M367.996,490.656H133.332   c-11.766,0-21.336-9.562-21.336-21.328V448H389.34v21.328C389.34,481.094,379.762,490.656,367.996,490.656z"/><path d="M325.34,458.656H175.996c-5.891,0-10.664,4.781-10.664,10.672S170.105,480,175.996,480H325.34   c5.875,0,10.656-4.781,10.656-10.672S331.215,458.656,325.34,458.656z"/><path d="M175.996,53.328H293.34c5.875,0,10.656-4.773,10.656-10.664s-4.781-10.672-10.656-10.672H175.996   c-5.891,0-10.664,4.781-10.664,10.672S170.105,53.328,175.996,53.328z"/><path d="M325.34,53.328c5.875,0,10.656-4.773,10.656-10.664s-4.781-10.672-10.656-10.672c-5.906,0-10.688,4.781-10.688,10.672   S319.434,53.328,325.34,53.328z"/></g>
      </symbol>


  </defs>
</svg>